Coordinates
version=1
nRows=22
nColumns=33
inDegrees=yes

Units are S.I. units (second, meters, Newtons, ...)
Angles are in degrees.

endheader
time	ground_thorax_rot_x	ground_thorax_rot_y	ground_thorax_rot_z	ground_thorax_tx	ground_thorax_ty	ground_thorax_tz	clav_prot_r	clav_elev_r	scapula_abduction_r	scapula_elevation_r	scapula_upward_rot_r	scapula_winging_r	shoulder_elv_r	plane_of_elev_r	axial_rot_r	elbow_flexion_r	pro_sup_r	wrist_flex_r	wrist_dev_r	clav_prot_l	clav_elev_l	scapula_abduction_l	scapula_elevation_l	scapula_upward_rot_l	scapula_winging_l	shoulder_elv_l	plane_of_elev_l	axial_rot_l	elbow_flexion_l	pro_sup_l	wrist_flex_l	wrist_dev_l	
7.7100	37.511936	-1.752771	4.945463	-44.263059	795.318930	11.420428	18.380567	38.439727	44.999749	44.245781	-41.103928	-3311.614753	-2626.156089	143.835273	180.000000	1449.674099	36.675744	20.660686	16.373877	6.056402	-45.000000	-44.999983	45.000000	-18.124541	2967.619776	-102.097922	140.287918	161.720709	1084.800545	13.337327	14.703357	-18.092450	
7.7200	37.603696	-2.189698	4.647139	-43.764033	793.789663	11.426614	18.267153	38.467979	44.999550	43.974277	-40.516649	-3311.564352	-2626.334420	143.955007	180.000000	1449.430969	37.015635	20.647103	16.396338	5.839712	-45.000000	-44.999969	45.000000	-17.868882	2967.344935	-102.157540	140.255569	162.397615	1084.616939	13.400064	14.676494	-18.054714	
7.7300	37.695746	-2.597373	4.399742	-43.379098	792.341196	11.413729	18.164392	38.514156	44.999194	43.723910	-40.005269	-3311.514037	-2626.507367	144.077692	180.000000	1449.199676	37.300287	20.623292	16.395400	5.614087	-45.000000	-44.999945	45.000000	-17.616261	2967.105237	-102.223367	140.233815	163.078672	1084.432209	13.441761	14.653142	-18.019296	
7.7400	37.787879	-2.859934	4.332543	-43.229972	791.069834	11.361546	18.120374	38.489559	44.998555	43.532168	-39.812039	-3311.458859	-2626.639329	144.175173	180.000000	1448.977109	37.423940	20.563788	16.372674	5.488171	-45.000000	-44.999902	45.000000	-17.525444	2966.953940	-102.284246	140.232767	163.491078	1084.288663	13.500744	14.600431	-17.999032	
7.7500	37.878381	-3.012105	4.413471	-43.346054	789.980419	11.263319	18.121101	38.427263	44.997413	43.391526	-39.866240	-3311.405687	-2626.743963	144.260102	180.000000	1448.771296	37.418566	20.479017	16.318324	5.420310	-45.000000	-44.999824	45.000000	-17.545031	2966.891774	-102.344988	140.247599	163.746620	1084.167665	13.553373	14.532645	-17.991566	
7.7600	37.977378	-3.104971	4.576379	-43.772118	789.088167	11.109066	18.146771	38.344406	44.995365	43.301525	-40.082733	-3311.372653	-2626.820575	144.327117	180.000000	1448.581289	37.312180	20.384545	16.261961	5.400038	-45.000000	-44.999685	45.000000	-17.629892	2966.896798	-102.396126	140.271093	163.878269	1084.072277	13.592309	14.451535	-18.000283	
7.7700	38.077003	-3.129992	4.834954	-44.525865	788.381642	10.892313	18.200963	38.242475	44.991698	43.258391	-40.467580	-3311.355682	-2626.875438	144.385189	180.000000	1448.413965	37.154519	20.289584	16.184856	5.413517	-45.000000	-44.999435	45.000000	-17.790993	2966.984247	-102.440191	140.294213	163.938536	1083.986927	13.616855	14.364422	-18.023653	
7.7800	38.180534	-3.121915	5.139604	-45.610205	787.837848	10.608865	18.275578	38.123778	44.985126	43.250238	-40.951540	-3311.365651	-2626.906662	144.433259	180.000000	1448.266871	37.009055	20.215481	16.111919	5.455916	-45.000000	-44.998988	45.000000	-18.034420	2967.131830	-102.460943	140.296125	163.968107	1083.916817	13.629747	14.276128	-18.065013	
7.7900	38.278558	-3.049984	5.526853	-47.023510	787.434872	10.255942	18.384814	37.974031	44.973365	43.276197	-41.576834	-3311.393041	-2626.917756	144.474604	180.000000	1448.140921	36.919865	20.163915	16.023378	5.538110	-45.000000	-44.998188	45.000000	-18.404062	2967.354347	-102.457187	140.271602	163.956149	1083.859131	13.646483	14.184129	-18.121858	
7.8000	38.378089	-2.968963	5.917563	-48.761217	787.153807	9.832704	18.503369	37.820525	44.952264	43.330453	-42.248686	-3311.442986	-2626.911179	144.504137	180.000000	1448.037262	36.934398	20.147266	15.942604	5.651631	-45.000000	-44.996753	45.000000	-18.840146	2967.610842	-102.424786	140.231013	163.918324	1083.824558	13.673090	14.089372	-18.192442	
7.8100	38.470684	-2.857441	6.337285	-50.815493	786.979635	9.340917	18.626154	37.677708	44.914561	43.418350	-42.990299	-3311.492925	-2626.897200	144.530039	180.000000	1447.955587	37.081331	20.157550	15.840950	5.797245	-45.000000	-44.994188	45.000000	-19.333363	2967.905438	-102.375937	140.197038	163.846191	1083.805181	13.719124	13.987624	-18.267460	
7.8200	38.564237	-2.771304	6.708489	-53.177105	786.901796	8.784977	18.721195	37.571214	44.846758	43.532082	-43.677996	-3311.542159	-2626.885147	144.558352	180.000000	1447.894287	37.386572	20.200548	15.735181	5.961067	-45.000000	-44.989575	45.000000	-19.817379	2968.200531	-102.311661	140.180812	163.746050	1083.809073	13.786186	13.882138	-18.342191	
7.8300	38.659455	-2.719534	7.017251	-55.834902	786.913898	8.172081	18.768999	37.518381	44.726047	43.671483	-44.255289	-3311.577743	-2626.882149	144.597990	180.000000	1447.847816	37.863815	20.270160	15.619010	6.133120	-45.000000	-44.981366	45.000000	-20.252099	2968.484537	-102.238499	140.194680	163.613499	1083.829767	13.877529	13.766618	-18.407848	
7.8400	38.761514	-2.728797	7.218112	-58.778726	787.012890	7.511465	18.740861	37.533844	44.518178	43.831193	-44.626817	-3311.591252	-2626.887715	144.658270	180.000000	1447.821918	38.521848	20.372541	15.508864	6.309261	-45.000000	-44.966508	45.000000	-20.613857	2968.729138	-102.155671	140.240694	163.452444	1083.875465	13.998352	13.640332	-18.463163	
7.8500	38.867710	-2.793593	7.327858	-61.998268	787.198078	6.814239	18.627190	37.611255	44.233635	44.008648	-44.852184	-3311.583317	-2626.885355	144.721031	180.000000	1447.815629	39.347157	20.494343	15.393783	6.475583	-45.000000	-44.940325	45.000000	-20.891729	2968.943745	-102.068541	140.319239	163.274408	1083.939260	14.157329	13.498890	-18.504604	
7.8600	38.971680	-2.837077	7.433106	-65.485288	787.470053	6.092480	18.469590	37.697515	43.840044	44.197881	-44.960165	-3311.540477	-2626.884506	144.818249	180.000000	1447.819643	40.319340	20.641948	15.269260	6.670888	-45.000000	-44.892215	45.000000	-21.246720	2969.147604	-101.965703	140.400035	163.002429	1084.035801	14.382115	13.341797	-18.541070	
7.8700	39.071869	-2.850353	7.556249	-69.232091	787.829902	5.358723	18.285604	37.774428	43.359914	44.390840	-45.000000	-3311.477970	-2626.882599	144.939104	180.000000	1447.825294	41.412759	20.807631	15.133197	6.887949	-45.000000	-44.809408	45.000000	-21.689094	2969.345825	-101.849029	140.480843	162.631342	1084.160884	14.687289	13.167512	-18.575167	
7.8800	39.159984	-2.778578	7.766462	-73.233056	788.278756	4.625043	18.093450	37.821120	42.780223	44.576615	-45.000000	-3311.394856	-2626.889246	145.103913	180.000000	1447.825972	42.609360	21.002268	14.996544	7.162110	-45.000000	-44.651666	45.000000	-22.350716	2969.528285	-101.701921	140.557663	162.085757	1084.326097	15.097894	12.956299	-18.613069	
7.8900	39.237798	-2.685733	8.012557	-77.481540	788.817859	3.902647	17.878231	37.847830	42.174440	44.735949	-45.000000	-3311.332896	-2626.890616	145.274085	180.000000	1447.821943	43.876824	21.216500	14.868243	7.449363	-45.000000	-44.406127	45.000000	-23.122334	2969.687649	-101.530526	140.645007	161.415344	1084.519749	15.614755	12.711065	-18.654461	
7.9000	39.300382	-2.536584	8.336016	-81.969757	789.448938	3.201185	17.658485	37.835883	41.536413	44.859252	-45.000000	-3311.296901	-2626.903202	145.471033	180.000000	1447.804519	45.185785	21.455814	14.753750	7.756001	-45.000000	-44.057895	45.000000	-24.084096	2969.822465	-101.320417	140.733829	160.577974	1084.746832	16.250623	12.426555	-18.704595	
7.9100	39.353858	-2.409497	8.653945	-86.686623	790.174546	2.528038	17.425142	37.798134	40.923332	44.939927	-45.000000	-3311.313116	-2626.914012	145.664039	180.000000	1447.780680	46.493807	21.705218	14.653563	8.027248	-45.000000	-43.637735	45.000000	-25.069340	2969.947189	-101.095677	140.828021	159.681117	1084.987274	16.990406	12.127153	-18.762906	
7.9200	39.398829	-2.293125	8.968037	-91.617990	790.998335	1.887921	17.175186	37.744724	40.322109	44.983338	-45.000000	-3311.378260	-2626.919597	145.853433	180.000000	1447.753227	47.772484	21.964265	14.577383	8.263384	-45.000000	-43.155057	45.000000	-26.107208	2970.052854	-100.849485	140.925836	158.741395	1085.247835	17.826875	11.810347	-18.833151	
